<svg width="103" height="30" viewBox="0 0 103 30" fill="none" xmlns="http://www.w3.org/2000/svg">
<g clip-path="url(#clip0)">
<path d="M42.6078 9.77456C42.2474 9.44945 41.8193 9.20839 41.3543 9.06882C40.8384 8.90555 40.3006 8.82225 39.7594 8.82181H35.8577V21.1194H38.4177V16.6379H39.9007C40.4435 16.6461 40.9829 16.5503 41.4896 16.3556C41.9336 16.1768 42.3347 15.9063 42.6667 15.5617C43.004 15.2081 43.2628 14.7872 43.4258 14.3266C43.6079 13.8112 43.6976 13.2676 43.6907 12.721C43.7064 12.1195 43.6065 11.5206 43.3964 10.9567C43.2252 10.5087 42.9557 10.1048 42.6078 9.77456ZM40.7717 13.8914C40.4928 14.1236 40.1401 14.2488 39.7771 14.2443H38.4177V11.2037H39.7594C40.1427 11.1816 40.5205 11.3033 40.8188 11.5448C40.959 11.6973 41.0651 11.878 41.1301 12.0747C41.195 12.2715 41.2173 12.4798 41.1954 12.6858C41.2202 12.9074 41.195 13.1318 41.1217 13.3425C41.0484 13.5531 40.9288 13.7447 40.7717 13.9032V13.8914Z" fill="#005B9C"/>
<path d="M52.524 9.99803C52.1878 9.61355 51.7722 9.30655 51.3058 9.09821C50.7496 8.85597 50.1467 8.73949 49.5403 8.7571C48.911 8.73795 48.2854 8.86057 47.71 9.11585C47.2433 9.3342 46.8281 9.64889 46.4918 10.0392C46.1785 10.4072 45.9441 10.8356 45.8033 11.2978C45.6644 11.7474 45.593 12.2152 45.5914 12.6857V17.0555C45.5882 17.5924 45.6615 18.1271 45.8092 18.6434C45.9482 19.1395 46.1909 19.6005 46.5212 19.9961C46.8532 20.3905 47.2722 20.7026 47.7453 20.9077C48.3193 21.1451 48.9369 21.2593 49.5579 21.2429C50.0962 21.2486 50.6309 21.1548 51.1351 20.9665C51.6025 20.788 52.0259 20.5112 52.3769 20.1549C52.7308 19.7975 53.0073 19.3711 53.189 18.9022C53.3911 18.377 53.491 17.8181 53.4832 17.2554V12.6857C53.4816 12.1994 53.4001 11.7166 53.242 11.2566C53.086 10.7948 52.8422 10.3674 52.524 9.99803ZM50.8997 17.4319C50.9084 17.6131 50.8771 17.7939 50.8079 17.9617C50.7387 18.1294 50.6334 18.2798 50.4995 18.4023C50.242 18.6353 49.9053 18.7615 49.5579 18.7551C49.3526 18.7745 49.1458 18.7428 48.9558 18.6627C48.7658 18.5827 48.5986 18.4568 48.4692 18.2964C48.2387 17.9488 48.1253 17.5367 48.1455 17.1202V12.5799C48.1465 12.4258 48.1724 12.2729 48.222 12.127C48.2763 11.966 48.3601 11.8164 48.4692 11.6859C48.5893 11.545 48.7377 11.4308 48.9047 11.3507C49.1095 11.2576 49.3331 11.2134 49.5579 11.2213C49.7811 11.2121 50.0026 11.2629 50.1994 11.3684C50.3622 11.4702 50.5024 11.6043 50.6113 11.7624C50.7116 11.8941 50.7855 12.0438 50.8291 12.2035C50.868 12.3354 50.8898 12.4718 50.8938 12.6093L50.8997 17.4319Z" fill="#005B9C"/>
<path d="M58.5798 12.127C58.6276 11.9668 58.7055 11.8171 58.8093 11.6859C58.9237 11.5439 59.0685 11.4293 59.2331 11.3507C59.4379 11.2576 59.6615 11.2133 59.8863 11.2213C60.1066 11.2153 60.3249 11.2638 60.5219 11.3625C60.6872 11.448 60.8365 11.5614 60.9633 11.6977C61.0773 11.8211 61.1636 11.9675 61.2163 12.127C61.2638 12.2638 61.3031 12.4032 61.334 12.5446L63.7528 11.8212C63.6706 11.4103 63.5278 11.0139 63.329 10.645C63.1302 10.276 62.8671 9.94543 62.5522 9.66868C62.2056 9.37033 61.8065 9.13899 61.3752 8.98646C60.2829 8.61623 59.0933 8.65383 58.0266 9.09232C57.574 9.30245 57.1711 9.60608 56.8444 9.98319C56.5178 10.3603 56.2748 10.8023 56.1316 11.2801C55.9928 11.7298 55.9214 12.1975 55.9198 12.6681V17.0555C55.9166 17.5924 55.9899 18.1271 56.1375 18.6434C56.2803 19.1392 56.5248 19.5999 56.8555 19.9961C57.1839 20.3917 57.6014 20.7041 58.0737 20.9077C58.6477 21.1451 59.2653 21.2593 59.8863 21.2429C60.8016 21.2706 61.6989 20.9841 62.4286 20.4313C63.1329 19.8772 63.6 19.0761 63.7351 18.1905L61.2987 17.4848C61.2693 17.8487 61.0981 18.1866 60.822 18.4258C60.563 18.6519 60.2302 18.7753 59.8863 18.7728C59.6833 18.7958 59.4778 18.7656 59.29 18.6852C59.1022 18.6047 58.9386 18.4768 58.8152 18.314C58.596 17.9621 58.4893 17.5518 58.5092 17.1378V12.5799C58.5109 12.4263 58.5347 12.2738 58.5798 12.127Z" fill="#005B9C"/>
<path d="M68.5372 12.127C68.585 11.9668 68.6629 11.8171 68.7667 11.6859C68.8811 11.5439 69.0259 11.4293 69.1904 11.3507C69.3952 11.2576 69.6189 11.2133 69.8437 11.2213C70.064 11.2153 70.2823 11.2638 70.4793 11.3625C70.6446 11.448 70.7939 11.5614 70.9207 11.6977C71.0347 11.8211 71.121 11.9675 71.1737 12.127C71.2212 12.2638 71.2605 12.4032 71.2914 12.5446L73.7102 11.8212C73.628 11.4103 73.4852 11.0139 73.2864 10.645C73.0876 10.276 72.8245 9.94543 72.5096 9.66868C72.1718 9.37342 71.7829 9.14223 71.362 8.98646C70.2697 8.61623 69.0802 8.65383 68.0134 9.09232C67.5608 9.30245 67.1579 9.60608 66.8312 9.98319C66.5046 10.3603 66.2617 10.8023 66.1185 11.2801C65.9796 11.7298 65.9082 12.1975 65.9066 12.6681V17.0555C65.9034 17.5924 65.9767 18.1271 66.1243 18.6434C66.2583 19.1368 66.4927 19.5973 66.8129 19.9961C67.1413 20.3917 67.5588 20.7041 68.0311 20.9077C68.6051 21.1451 69.2227 21.2593 69.8437 21.2429C70.7611 21.2655 71.6586 20.9728 72.386 20.4136C73.0903 19.8595 73.5574 19.0585 73.6925 18.1729L71.2561 17.4672C71.2267 17.8311 71.0555 18.169 70.7794 18.4081C70.5204 18.6342 70.1876 18.7577 69.8437 18.7551C69.6407 18.7782 69.4352 18.748 69.2474 18.6675C69.0596 18.5871 68.8959 18.4592 68.7726 18.2964C68.5534 17.9445 68.4467 17.5342 68.4666 17.1202V12.5799C68.4683 12.4263 68.4921 12.2738 68.5372 12.127Z" fill="#005B9C"/>
<path d="M76.1465 21.1194H83.2968V18.7022H78.7065V16.091H82.6612V13.7444H78.7065V11.2037H83.2968V8.83945H76.1465V21.1194Z" fill="#005B9C"/>
<path d="M84.7092 11.1684H87.3398V21.1194H89.8822V11.1684H92.5128V8.83945H84.7092V11.1684Z" fill="#005B9C"/>
<path d="M100.687 8.83945L97.1738 15.9675H97.1385V8.83945H94.5962V21.1194H96.9973L100.422 14.4325H100.44V21.1194H103V8.83945H100.687Z" fill="#005B9C"/>
<path d="M16.5547 7.28682L2.59536 6.55167C0.423963 9.74774 -0.431746 13.657 0.206032 17.4672L16.6841 7.7926C16.6195 7.63024 16.576 7.46025 16.5547 7.28682Z" fill="#005B9C"/>
<path d="M20.2446 8.23367L29.8667 17.3495C29.9882 16.5713 30.0492 15.7847 30.0491 14.997C30.0526 11.9001 29.0922 8.87877 27.3008 6.35168L20.5977 7.15153C20.5851 7.53841 20.4626 7.91372 20.2446 8.23367Z" fill="#005B9C"/>
<path d="M17.0663 8.43951L0.623535 19.2668C1.74989 23.0186 4.2961 26.1835 7.72089 28.0886L17.3782 8.68064C17.2662 8.61129 17.1617 8.53048 17.0663 8.43951Z" fill="#005B9C"/>
<path d="M18.0552 9.02765L9.31006 28.8767C12.9356 30.36 16.9966 30.3747 20.6329 28.9179L18.4554 9.08646C18.3202 9.08174 18.186 9.06202 18.0552 9.02765Z" fill="#005B9C"/>
<path d="M19.2029 8.98059L22.2866 28.1357C25.7425 26.218 28.3062 23.0202 29.4252 19.2315L19.6855 8.75122C19.5372 8.8517 19.3745 8.92904 19.2029 8.98059Z" fill="#005B9C"/>
<path d="M17.2904 5.49304L14.1242 0C10.1723 0.231091 6.47315 2.01813 3.83716 4.96961L16.6195 6.49873C16.736 6.10333 16.97 5.75263 17.2904 5.49304Z" fill="#005B9C"/>
<path d="M18.6084 5.03431C19.0015 5.0427 19.3837 5.16499 19.7086 5.38632C20.0335 5.60765 20.2871 5.9185 20.4386 6.28112L26.1707 4.92256C23.5483 2.01227 19.889 0.245036 15.9778 0L18.0964 5.08724C18.2642 5.04869 18.4362 5.03091 18.6084 5.03431Z" fill="#005B9C"/>
</g>
<defs>
<clipPath id="clip0">
<rect width="103" height="30" fill="white"/>
</clipPath>
</defs>
</svg>
